<svg width="258" height="39" viewBox="0 0 258 39" fill="none" xmlns="http://www.w3.org/2000/svg">
<path d="M22.024 6.052L15.076 31H7.73198L0.531982 6.052H6.75998L11.512 26.392L15.976 6.052H22.024Z" fill="#141414"/>
<path d="M29.4512 11.884V31H23.7632V11.884H29.4512ZM26.5712 1.804C27.5552 1.804 28.3592 2.116 28.9832 2.74C29.6312 3.34 29.9552 4.108 29.9552 5.044C29.9552 5.98 29.6312 6.76 28.9832 7.384C28.3592 7.984 27.5552 8.284 26.5712 8.284C25.5872 8.284 24.7832 7.984 24.1592 7.384C23.5352 6.76 23.2232 5.98 23.2232 5.044C23.2232 4.108 23.5352 3.34 24.1592 2.74C24.7832 2.116 25.5872 1.804 26.5712 1.804Z" fill="#141414"/>
<path d="M45.9114 30.1C45.2154 30.58 44.3994 30.952 43.4634 31.216C42.5514 31.48 41.6394 31.612 40.7274 31.612C36.5514 31.588 34.4634 29.284 34.4634 24.7V15.844H31.7634V11.884H34.4634V7.744L40.1514 7.096V11.884H44.5434L43.9314 15.844H40.1514V24.628C40.1514 25.516 40.2954 26.152 40.5834 26.536C40.8714 26.92 41.3274 27.112 41.9514 27.112C42.5994 27.112 43.2834 26.908 44.0034 26.5L45.9114 30.1Z" fill="#141414"/>
<path d="M55.4573 11.272C58.3853 11.272 60.6773 12.172 62.3333 13.972C63.9893 15.748 64.8173 18.244 64.8173 21.46C64.8173 23.5 64.4333 25.288 63.6653 26.824C62.9213 28.336 61.8413 29.512 60.4253 30.352C59.0333 31.192 57.3773 31.612 55.4573 31.612C52.5533 31.612 50.2613 30.724 48.5813 28.948C46.9253 27.148 46.0973 24.64 46.0973 21.424C46.0973 19.384 46.4693 17.608 47.2133 16.096C47.9813 14.56 49.0613 13.372 50.4533 12.532C51.8693 11.692 53.5373 11.272 55.4573 11.272ZM55.4573 15.448C54.3053 15.448 53.4413 15.94 52.8653 16.924C52.2893 17.884 52.0013 19.384 52.0013 21.424C52.0013 23.512 52.2773 25.036 52.8293 25.996C53.4053 26.956 54.2813 27.436 55.4573 27.436C56.6093 27.436 57.4733 26.956 58.0493 25.996C58.6253 25.012 58.9133 23.5 58.9133 21.46C58.9133 19.372 58.6253 17.848 58.0493 16.888C57.4973 15.928 56.6333 15.448 55.4573 15.448ZM58.0493 0.940002L60.2813 5.188L51.7853 8.608L50.2013 5.692L58.0493 0.940002Z" fill="#141414"/>
<path d="M78.5687 11.344C79.2647 11.344 79.9007 11.428 80.4767 11.596L79.5767 17.104C78.8567 16.936 78.2807 16.852 77.8487 16.852C76.7207 16.852 75.8567 17.248 75.2567 18.04C74.6807 18.808 74.2247 19.972 73.8887 21.532V31H68.2007V11.884H73.1687L73.6367 15.592C74.0687 14.272 74.7167 13.24 75.5807 12.496C76.4687 11.728 77.4647 11.344 78.5687 11.344Z" fill="#141414"/>
<path d="M88.338 11.884V31H82.6499V11.884H88.338ZM85.458 1.804C86.442 1.804 87.2459 2.116 87.8699 2.74C88.5179 3.34 88.8419 4.108 88.8419 5.044C88.8419 5.98 88.5179 6.76 87.8699 7.384C87.2459 7.984 86.442 8.284 85.458 8.284C84.474 8.284 83.67 7.984 83.046 7.384C82.422 6.76 82.11 5.98 82.11 5.044C82.11 4.108 82.422 3.34 83.046 2.74C83.67 2.116 84.474 1.804 85.458 1.804Z" fill="#141414"/>
<path d="M108.002 25.456C108.002 26.176 108.098 26.704 108.29 27.04C108.506 27.376 108.842 27.628 109.298 27.796L108.11 31.504C106.934 31.408 105.974 31.156 105.23 30.748C104.486 30.316 103.91 29.644 103.502 28.732C102.254 30.652 100.334 31.612 97.7421 31.612C95.8461 31.612 94.3341 31.06 93.2061 29.956C92.0781 28.852 91.5141 27.412 91.5141 25.636C91.5141 23.548 92.2821 21.952 93.8181 20.848C95.3541 19.744 97.5741 19.192 100.478 19.192H102.422V18.364C102.422 17.236 102.182 16.468 101.702 16.06C101.222 15.628 100.382 15.412 99.1821 15.412C98.5581 15.412 97.8021 15.508 96.9141 15.7C96.0261 15.868 95.1141 16.108 94.1781 16.42L92.8821 12.676C94.0821 12.22 95.3061 11.872 96.5541 11.632C97.8261 11.392 99.0021 11.272 100.082 11.272C102.818 11.272 104.822 11.836 106.094 12.964C107.366 14.092 108.002 15.784 108.002 18.04V25.456ZM99.3981 27.544C100.694 27.544 101.702 26.932 102.422 25.708V22.324H101.018C99.7221 22.324 98.7501 22.552 98.1021 23.008C97.4781 23.464 97.1661 24.172 97.1661 25.132C97.1661 25.9 97.3581 26.5 97.7421 26.932C98.1501 27.34 98.7021 27.544 99.3981 27.544Z" fill="#141414"/>
<path d="M138.248 6.052L137.672 10.588H131.516V31H125.612V10.588H119.168V6.052H138.248Z" fill="#141414"/>
<path d="M153.916 25.456C153.916 26.176 154.012 26.704 154.204 27.04C154.42 27.376 154.756 27.628 155.212 27.796L154.024 31.504C152.848 31.408 151.888 31.156 151.144 30.748C150.4 30.316 149.824 29.644 149.416 28.732C148.168 30.652 146.248 31.612 143.656 31.612C141.76 31.612 140.248 31.06 139.12 29.956C137.992 28.852 137.428 27.412 137.428 25.636C137.428 23.548 138.196 21.952 139.732 20.848C141.268 19.744 143.488 19.192 146.392 19.192H148.336V18.364C148.336 17.236 148.096 16.468 147.616 16.06C147.136 15.628 146.296 15.412 145.096 15.412C144.472 15.412 143.716 15.508 142.828 15.7C141.94 15.868 141.028 16.108 140.092 16.42L138.796 12.676C139.996 12.22 141.22 11.872 142.468 11.632C143.74 11.392 144.916 11.272 145.996 11.272C148.732 11.272 150.736 11.836 152.008 12.964C153.28 14.092 153.916 15.784 153.916 18.04V25.456ZM145.312 27.544C146.608 27.544 147.616 26.932 148.336 25.708V22.324H146.932C145.636 22.324 144.664 22.552 144.016 23.008C143.392 23.464 143.08 24.172 143.08 25.132C143.08 25.9 143.272 26.5 143.656 26.932C144.064 27.34 144.616 27.544 145.312 27.544Z" fill="#141414"/>
<path d="M179.579 11.272C181.091 11.272 182.303 11.788 183.215 12.82C184.127 13.828 184.583 15.232 184.583 17.032V31H178.895V18.004C178.895 16.3 178.355 15.448 177.275 15.448C176.675 15.448 176.147 15.652 175.691 16.06C175.235 16.468 174.791 17.092 174.359 17.932V31H168.671V18.004C168.671 16.3 168.131 15.448 167.051 15.448C166.475 15.448 165.947 15.664 165.467 16.096C165.011 16.504 164.567 17.116 164.135 17.932V31H158.447V11.884H163.415L163.811 14.116C164.555 13.156 165.371 12.448 166.259 11.992C167.171 11.512 168.203 11.272 169.355 11.272C170.435 11.272 171.359 11.536 172.127 12.064C172.919 12.592 173.495 13.336 173.855 14.296C174.623 13.264 175.463 12.508 176.375 12.028C177.311 11.524 178.379 11.272 179.579 11.272Z" fill="#141414"/>
<path d="M199.657 11.272C202.057 11.272 203.845 12.16 205.021 13.936C206.197 15.712 206.785 18.196 206.785 21.388C206.785 23.356 206.473 25.12 205.849 26.68C205.249 28.216 204.373 29.428 203.221 30.316C202.069 31.18 200.725 31.612 199.189 31.612C197.269 31.612 195.721 30.952 194.545 29.632V38.38L188.857 38.992V11.884H193.861L194.149 14.008C194.893 13.072 195.745 12.388 196.705 11.956C197.665 11.5 198.649 11.272 199.657 11.272ZM197.461 27.436C199.741 27.436 200.881 25.444 200.881 21.46C200.881 19.204 200.629 17.644 200.125 16.78C199.621 15.892 198.865 15.448 197.857 15.448C197.209 15.448 196.597 15.64 196.021 16.024C195.469 16.408 194.977 16.96 194.545 17.68V25.744C195.313 26.872 196.285 27.436 197.461 27.436Z" fill="#141414"/>
<path d="M227.005 21.064C227.005 21.856 226.969 22.54 226.897 23.116H215.053C215.245 24.724 215.701 25.852 216.421 26.5C217.141 27.148 218.137 27.472 219.409 27.472C220.177 27.472 220.921 27.34 221.641 27.076C222.361 26.788 223.141 26.356 223.981 25.78L226.321 28.948C224.089 30.724 221.605 31.612 218.869 31.612C215.773 31.612 213.397 30.7 211.741 28.876C210.085 27.052 209.257 24.604 209.257 21.532C209.257 19.588 209.605 17.848 210.301 16.312C210.997 14.752 212.017 13.528 213.361 12.64C214.705 11.728 216.313 11.272 218.185 11.272C220.945 11.272 223.105 12.136 224.665 13.864C226.225 15.592 227.005 17.992 227.005 21.064ZM221.425 19.444C221.377 16.516 220.345 15.052 218.329 15.052C217.345 15.052 216.577 15.412 216.025 16.132C215.497 16.852 215.173 18.04 215.053 19.696H221.425V19.444Z" fill="#141414"/>
<path d="M235.277 31.612C233.621 31.612 232.325 31.144 231.389 30.208C230.477 29.248 230.021 27.892 230.021 26.14V4.288L235.709 3.676V25.924C235.709 26.716 236.033 27.112 236.681 27.112C237.017 27.112 237.329 27.052 237.617 26.932L238.733 30.964C237.701 31.396 236.549 31.612 235.277 31.612Z" fill="#141414"/>
<path d="M245.964 31.612C244.308 31.612 243.012 31.144 242.076 30.208C241.164 29.248 240.708 27.892 240.708 26.14V4.288L246.396 3.676V25.924C246.396 26.716 246.72 27.112 247.368 27.112C247.704 27.112 248.016 27.052 248.304 26.932L249.42 30.964C248.388 31.396 247.236 31.612 245.964 31.612Z" fill="#141414"/>
<path d="M257.264 11.884V31H251.576V11.884H257.264ZM254.384 1.804C255.368 1.804 256.172 2.116 256.796 2.74C257.444 3.34 257.768 4.108 257.768 5.044C257.768 5.98 257.444 6.76 256.796 7.384C256.172 7.984 255.368 8.284 254.384 8.284C253.4 8.284 252.596 7.984 251.972 7.384C251.348 6.76 251.036 5.98 251.036 5.044C251.036 4.108 251.348 3.34 251.972 2.74C252.596 2.116 253.4 1.804 254.384 1.804Z" fill="#141414"/>
</svg>
